<?xml version="1.0" encoding="utf-8"?><!DOCTYPE svg PUBLIC "-//W3C//DTD SVG 1.1//EN" "http://www.w3.org/Graphics/SVG/1.1/DTD/svg11.dtd"><svg version="1.1" xmlns="http://www.w3.org/2000/svg" xmlns:xlink="http://www.w3.org/1999/xlink" viewBox="0 0 900 750" width="900" height="750"><g class="svg-logo"><g class="base"><g class="logo-element laurel"><path d="M268.12 410.44c-10.92 6.08-16.45 14.43-14.12 26.02 1.29-5.5 4.34-10.43 8.63-14.98 -1.01 6.17-3.1 11.57-6.7 15.94C266.58 432.26 269.88 422.82 268.12 410.44zM325.94 508.93c-5.32 11.32-4.94 21.3 3.71 29.37 -2.15-5.23-2.57-11.01-1.72-17.2 2.77 5.59 4.23 11.21 3.85 16.85C337.42 527.55 334.59 517.96 325.94 508.93zM312.2 495.32c-6.46 10.71-7.12 20.69 0.65 29.6 -1.6-5.42-1.41-11.22 0.07-17.28 2.18 5.85 3.05 11.58 2.09 17.16C321.69 515.04 319.87 505.2 312.2 495.32zM289.3 464.22c-8.53 9.14-11.24 18.77-5.46 29.1 -0.45-5.63 0.93-11.27 3.63-16.9 0.93 6.18 0.59 11.97-1.5 17.23C294.52 485.46 294.76 475.47 289.3 464.22zM299.94 480.37c-7.54 9.98-9.23 19.83-2.42 29.51 -1.04-5.56-0.24-11.3 1.86-17.19 1.56 6.05 1.83 11.85 0.29 17.28C307.33 500.96 306.54 490.98 299.94 480.37zM280.39 447.06c-9.43 8.2-13.12 17.5-8.45 28.38 0.13-5.66 2.09-11.11 5.36-16.44 0.28 6.25-0.65 11.98-3.28 16.98C283.38 468.73 284.66 458.8 280.39 447.06zM273.3 429.07c-10.23 7.19-14.86 16.05-11.35 27.34 0.72-5.62 3.24-10.83 7.04-15.8 -0.37 6.24-1.89 11.83-5.02 16.54C274.03 450.93 276.33 441.2 273.3 429.07zM347.76 549.87c-2.69-4.98-3.7-10.69-3.5-16.93 3.34 5.28 5.37 10.71 5.58 16.36 4.53-10.93 0.72-20.17-8.82-28.25C336.9 532.85 338.31 542.74 347.76 549.87zM268.53 479.21c-5.65-0.14-11.11-2.1-16.43-5.36 6.24-0.28 11.96 0.65 16.97 3.27 -7.24-9.35-17.16-10.64-28.91-6.37C248.37 480.19 257.67 483.87 268.53 479.21zM264.9 391.37c-11.49 4.92-17.85 12.64-16.74 24.43 1.86-5.34 5.4-9.94 10.14-14.01 -1.65 6.03-4.29 11.19-8.32 15.16C261.11 412.92 265.37 403.86 264.9 391.37zM329.75 558.33c5.28-3.34 10.71-5.37 16.36-5.58 -10.93-4.53-20.18-0.72-28.26 8.82 11.81 4.12 21.71 2.71 28.82-6.75C341.7 557.52 335.99 558.53 329.75 558.33zM280.84 497.43c-5.64 0.46-11.27-0.94-16.9-3.63 6.18-0.92 11.97-0.59 17.23 1.5 -8.18-8.54-18.17-8.79-29.41-3.33C260.89 500.49 270.51 503.19 280.84 497.43zM258.18 459.81c-5.61-0.71-10.84-3.23-15.79-7.04 6.23 0.36 11.84 1.89 16.54 5.02 -6.23-10.05-15.96-12.36-28.09-9.32C238.03 458.7 246.89 463.32 258.18 459.81zM294.97 514.27c-5.56 1.04-11.31 0.25-17.19-1.85 6.05-1.57 11.84-1.83 17.28-0.3 -9.01-7.66-18.98-6.86-29.6-0.26C275.44 519.39 285.3 521.08 294.97 514.27zM293.48 529.49c5.86-2.19 11.59-3.05 17.16-2.08 -9.76-6.69-19.6-4.86-29.47 2.81 10.7 6.46 20.68 7.12 29.59-0.66C305.35 531.17 299.55 530.97 293.48 529.49zM310.86 544.85c5.6-2.77 11.21-4.23 16.85-3.85 -10.4-5.64-19.99-2.81-29.02 5.85 11.32 5.32 21.31 4.94 29.37-3.72C322.84 545.29 317.05 545.7 310.86 544.85zM249.9 439.45c-5.51-1.3-10.44-4.34-14.98-8.64 6.17 1.01 11.57 3.11 15.94 6.7 -5.16-10.64-14.6-13.94-26.98-12.18C229.96 436.26 238.3 441.77 249.9 439.45zM284.34 245.44c3.99-1.58 8.38-1.82 13.06-1.11 -4.27 2.04-8.55 3.08-12.82 2.72 7.82 4.39 15.13 2.36 22.07-4.09C298.13 238.8 290.55 238.97 284.34 245.44zM255.85 361.58c-2.85 5.56-6.5 10.06-11.27 13.11 11.71-1.64 17.75-9.62 19.87-21.94 -12.26 2.44-20.08 8.68-21.42 20.43C245.97 368.35 250.37 364.58 255.85 361.58zM298.92 254.7c-9.66-3.81-17.92-2.97-24.15 4.63 4.22-2.06 8.99-2.71 14.17-2.34 -4.49 2.61-9.07 4.1-13.77 4.09C284.09 265.2 291.89 262.34 298.92 254.7zM294.5 232.97c3.72-1.15 7.72-1.06 11.92-0.09 -4.02 1.55-7.97 2.19-11.82 1.57 6.78 4.54 13.55 3.21 20.3-2.16C307.48 227.91 300.59 227.54 294.5 232.97zM243.76 418.34c-5.34-1.86-9.93-5.4-14-10.14 6.03 1.65 11.19 4.29 15.15 8.32 -4.03-11.13-13.07-15.38-25.57-14.92C224.27 413.09 231.99 419.45 243.76 418.34zM305.19 221.71c3.4-0.77 6.97-0.43 10.65 0.72 -3.7 1.11-7.26 1.42-10.66 0.61 5.75 4.5 11.89 3.77 18.27-0.56C317.11 218.07 310.99 217.27 305.19 221.71zM314.85 213.75c3.86 3.44 8.22 3.19 12.93 0.42 -4.28-3.4-8.57-4.24-12.87-1.36 2.44-0.39 4.95 0.01 7.49 0.99C319.74 214.41 317.21 214.47 314.85 213.75zM291.96 267.71c-10.96-3.28-19.95-1.59-26.08 7.34 4.44-2.66 9.62-3.81 15.34-3.89 -4.69 3.27-9.57 5.35-14.73 5.77C276.66 280.62 284.96 276.76 291.96 267.71zM246.19 395.96c11.48-2.86 16.65-11.41 17.49-23.89 -11.94 3.71-19.07 10.72-19.18 22.55 2.4-5.12 6.4-9.33 11.54-12.88C253.77 387.57 250.61 392.43 246.19 395.96zM258.3 291.5c4.19-3.04 9.25-4.64 14.94-5.21 -4.38 3.67-9.07 6.17-14.17 7.04 10.46 2.78 18.39-1.79 24.57-11.41C272.43 279.6 263.62 282.07 258.3 291.5zM246.86 330.2c3.78-4.04 8.76-6.76 14.61-8.52 -3.85 4.74-8.26 8.31-13.43 10.27 11.55 0.79 18.93-5.63 23.45-17C259.26 314.83 250.52 319.22 246.86 330.2zM257.76 341.5c-3.42 5.23-7.51 9.34-12.56 11.88 11.82-0.42 18.65-7.73 22.04-19.77 -12.45 1.16-20.87 6.55-23.42 18.11C247.22 347.21 252 343.92 257.76 341.5zM252.17 309.11c4.09-3.56 9.22-5.71 15.11-6.83 -4.24 4.23-8.9 7.28-14.14 8.66 11.18 1.94 19.03-3.57 24.59-14.19C265.82 295.37 256.85 298.77 252.17 309.11zM324.63 203.14c-1.53 2.24-3.35 3.98-5.56 5.03 5.13-0.07 8.16-3.17 9.74-8.36 -5.41 0.38-9.11 2.64-10.33 7.63C320 205.51 322.1 204.13 324.63 203.14zM238.85 352.8c-4.51-3.41-7.8-8.19-10.21-13.95 5.23 3.41 9.34 7.51 11.87 12.56 -0.42-11.82-7.73-18.65-19.76-22.03C221.9 341.83 227.3 350.25 238.85 352.8zM241.92 330.75c-4.05-3.78-6.76-8.76-8.53-14.6 4.74 3.85 8.32 8.26 10.28 13.43 0.79-11.55-5.63-18.94-17-23.45C226.54 318.36 230.94 327.1 241.92 330.75zM247.29 309.13c-3.56-4.08-5.7-9.22-6.83-15.11 4.23 4.24 7.28 8.89 8.66 14.14 1.94-11.17-3.57-19.03-14.19-24.59C233.56 295.49 236.96 304.46 247.29 309.13zM253.66 291.12c-3.04-4.2-4.64-9.25-5.21-14.94 3.67 4.39 6.16 9.07 7.03 14.18 2.79-10.46-1.78-18.39-11.41-24.58C241.76 276.99 244.23 285.8 253.66 291.12zM239.86 396.7c-5.12-2.4-9.32-6.4-12.87-11.54 5.82 2.26 10.68 5.43 14.21 9.85 -2.86-11.49-11.41-16.65-23.89-17.49C221.01 389.46 228.03 396.59 239.86 396.7zM238.21 374.77c-4.84-2.92-8.61-7.33-11.61-12.8 5.56 2.85 10.07 6.5 13.11 11.26 -1.65-11.72-9.62-17.75-21.94-19.87C220.22 365.62 226.46 373.44 238.21 374.77zM279.31 230.91c2.04 4.27 3.08 8.55 2.73 12.83 4.39-7.83 2.36-15.12-4.1-22.08 -4.16 8.52-3.99 16.1 2.49 22.31C278.84 239.98 278.59 235.59 279.31 230.91zM261.3 274.26c-2.66-4.43-3.82-9.61-3.89-15.33 3.27 4.69 5.34 9.57 5.77 14.73 3.69-10.18-0.17-18.47-9.22-25.48C250.67 259.15 252.37 268.14 261.3 274.26zM302.56 209.01c1.11 3.7 1.42 7.27 0.61 10.67 4.5-5.75 3.77-11.88-0.57-18.27 -4.41 6.34-5.2 12.46-0.76 18.26C301.06 216.26 301.4 212.7 302.56 209.01zM313.07 203.09c0.62 2.66 0.68 5.19-0.05 7.55 3.44-3.85 3.19-8.22 0.42-12.93 -3.4 4.28-4.24 8.57-1.36 12.87C311.68 208.13 312.09 205.63 313.07 203.09zM290.76 219.26c1.55 4.03 2.19 7.98 1.57 11.82 4.53-6.78 3.2-13.55-2.16-20.3 -4.37 7.43-4.75 14.31 0.68 20.4C289.7 227.45 289.79 223.46 290.76 219.26zM270.59 258.21c-2.06-4.22-2.71-9-2.34-14.17 2.6 4.49 4.1 9.07 4.08 13.77 4.12-8.93 1.27-16.72-6.37-23.75C262.15 243.71 262.99 251.98 270.59 258.21zM351.79 552.59c-16.66-8.95-31.97-20.1-45.51-33.09 -64.65-62-82.45-158.1-44.44-238.43 12.87-27.19 31.63-51.6 55.37-71.25 0.66-0.55 0.37-0.97 0.35-1 -0.03-0.03-0.39-0.43-1.08 0.14 -23.86 19.76-42.73 44.31-55.66 71.63 -38.31 80.97-21.36 177.96 43.9 240.55 13.65 13.09 29.07 24.33 45.86 33.37 0.82 0.35 2.38 1.38 2.89 0.43C354.02 553.89 352.45 552.99 351.79 552.59z" fill="#000" stroke="none" stroke-width="0"></path><path d="M631.81 410.44c-1.76 12.37 1.54 21.82 12.19 26.98 -3.6-4.37-5.69-9.77-6.7-15.94 4.3 4.54 7.34 9.48 8.63 14.98C648.26 424.87 642.74 416.53 631.81 410.44zM572 521.1c0.85 6.19 0.44 11.98-1.72 17.2 8.66-8.07 9.04-18.05 3.71-29.37 -8.65 9.03-11.48 18.62-5.84 29.02C567.78 532.31 569.23 526.69 572 521.1zM587.74 495.32c-7.67 9.88-9.49 19.72-2.81 29.47 -0.96-5.57-0.1-11.31 2.09-17.15 1.48 6.07 1.67 11.86 0.06 17.28C594.86 516.01 594.2 506.03 587.74 495.32zM610.64 464.22c-5.46 11.25-5.22 21.24 3.33 29.42 -2.09-5.26-2.42-11.05-1.5-17.23 2.7 5.64 4.08 11.27 3.63 16.9C621.88 482.99 619.17 473.36 610.64 464.22zM600 480.37c-6.6 10.61-7.4 20.59 0.26 29.6 -1.53-5.43-1.27-11.23 0.29-17.28 2.1 5.89 2.9 11.63 1.86 17.19C609.23 500.2 607.54 490.35 600 480.37zM628 475.44c4.67-10.88 0.98-20.17-8.45-28.37 -4.27 11.74-2.99 21.67 6.36 28.91 -2.62-5-3.56-10.73-3.28-16.98C625.91 464.32 627.87 469.78 628 475.44zM626.63 429.07c-3.03 12.13-0.73 21.85 9.33 28.08 -3.13-4.71-4.65-10.3-5.02-16.54 3.8 4.96 6.32 10.18 7.04 15.8C641.49 445.12 636.86 436.26 626.63 429.07zM555.68 532.94c0.2 6.24-0.81 11.95-3.5 16.93 9.45-7.12 10.86-17.02 6.74-28.82 -9.54 8.09-13.35 17.33-8.82 28.26C550.31 543.64 552.33 538.22 555.68 532.94zM630.87 477.12c5.01-2.63 10.73-3.55 16.97-3.27 -5.32 3.27-10.78 5.23-16.43 5.36 10.87 4.66 20.16 0.99 28.37-8.45C648.03 466.48 638.11 467.77 630.87 477.12zM651.77 415.79c1.11-11.79-5.24-19.51-16.74-24.42 -0.47 12.49 3.79 21.55 14.92 25.57 -4.03-3.97-6.68-9.13-8.32-15.16C646.38 405.85 649.91 410.45 651.77 415.79zM553.83 552.75c5.65 0.21 11.08 2.24 16.36 5.58 -6.24 0.2-11.95-0.82-16.92-3.51 7.12 9.46 17.02 10.87 28.82 6.75C574 552.03 564.75 548.22 553.83 552.75zM618.78 495.29c5.26-2.09 11.04-2.41 17.23-1.5 -5.63 2.7-11.27 4.09-16.9 3.63 10.33 5.77 19.95 3.06 29.1-5.46C636.95 486.5 626.95 486.75 618.78 495.29zM641 457.79c4.71-3.13 10.31-4.66 16.54-5.02 -4.95 3.8-10.18 6.32-15.79 7.04 11.29 3.52 20.16-1.1 27.34-11.34C656.97 445.43 647.24 447.74 641 457.79zM604.87 512.11c5.44-1.53 11.24-1.27 17.28 0.3 -5.88 2.1-11.63 2.89-17.19 1.85 9.67 6.82 19.53 5.12 29.51-2.42C623.85 505.25 613.88 504.45 604.87 512.11zM589.29 527.41c5.57-0.96 11.31-0.1 17.16 2.09 -6.07 1.48-11.87 1.68-17.28 0.06 8.91 7.78 18.89 7.12 29.59 0.66C608.89 522.55 599.05 520.72 589.29 527.41zM572.22 541c5.64-0.38 11.26 1.08 16.85 3.85 -6.19 0.84-11.98 0.43-17.2-1.73 8.06 8.66 18.05 9.04 29.37 3.72C592.21 538.19 582.62 535.36 572.22 541zM649.08 437.51c4.36-3.59 9.77-5.68 15.94-6.7 -4.53 4.3-9.47 7.34-14.98 8.64 11.6 2.32 19.93-3.19 26.02-14.12C663.68 423.57 654.24 426.87 649.08 437.51zM615.59 245.44c-6.21-6.48-13.79-6.65-22.31-2.48 6.94 6.45 14.25 8.49 22.07 4.1 -4.28 0.36-8.55-0.69-12.82-2.72C607.21 243.62 611.61 243.87 615.59 245.44zM656.9 373.18c-1.34-11.75-9.15-17.99-21.42-20.43 2.12 12.32 8.16 20.3 19.87 21.94 -4.76-3.05-8.41-7.55-11.27-13.1C649.56 364.58 653.97 368.35 656.9 373.18zM625.16 259.33c-6.23-7.6-14.49-8.44-24.15-4.63 7.03 7.64 14.83 10.5 23.75 6.38 -4.69 0.02-9.27-1.48-13.77-4.09C616.17 256.62 620.95 257.27 625.16 259.33zM605.43 232.97c-6.09-5.43-12.97-5.05-20.4-0.68 6.75 5.37 13.52 6.7 20.3 2.16 -3.85 0.62-7.8-0.02-11.82-1.57C597.71 231.9 601.71 231.82 605.43 232.97zM655.02 416.52c3.97-4.03 9.13-6.67 15.15-8.32 -4.06 4.74-8.66 8.28-14 10.14 11.77 1.12 19.49-5.25 24.41-16.74C668.09 401.13 659.05 405.39 655.02 416.52zM594.75 221.71c-5.8-4.44-11.92-3.64-18.26 0.77 6.39 4.33 12.52 5.06 18.27 0.56 -3.39 0.82-6.96 0.51-10.66-0.61C587.78 221.28 591.35 220.94 594.75 221.71zM585.03 212.8c-4.3-2.88-8.59-2.03-12.87 1.36 4.71 2.77 9.07 3.02 12.93-0.42 -2.36 0.72-4.89 0.66-7.55 0.04C580.08 212.81 582.59 212.41 585.03 212.8zM607.98 267.71c7 9.05 15.3 12.91 25.47 9.22 -5.16-0.42-10.04-2.5-14.73-5.77 5.71 0.08 10.9 1.23 15.34 3.89C627.93 266.12 618.94 264.43 607.98 267.71zM655.44 394.62c-0.11-11.83-7.24-18.84-19.18-22.55 0.84 12.48 6.01 21.03 17.49 23.89 -4.42-3.53-7.58-8.38-9.85-14.21C649.04 385.29 653.04 389.5 655.44 394.62zM616.3 281.91c6.19 9.63 14.11 14.2 24.57 11.41 -5.1-0.87-9.79-3.37-14.17-7.04 5.69 0.57 10.75 2.18 14.94 5.22C636.32 282.07 627.51 279.6 616.3 281.91zM628.45 314.96c4.52 11.37 11.9 17.79 23.45 17 -5.17-1.96-9.58-5.53-13.43-10.27 5.85 1.76 10.83 4.48 14.61 8.52C649.42 319.22 640.68 314.83 628.45 314.96zM656.12 351.72c-2.55-11.56-10.97-16.95-23.42-18.11 3.39 12.03 10.22 19.35 22.04 19.77 -5.05-2.54-9.15-6.65-12.56-11.88C647.94 343.92 652.71 347.21 656.12 351.72zM622.21 296.74c5.56 10.62 13.41 16.13 24.59 14.19 -5.24-1.38-9.9-4.43-14.14-8.66 5.89 1.12 11.02 3.27 15.11 6.83C643.09 298.77 634.12 295.37 622.21 296.74zM580.87 208.17c-2.21-1.05-4.03-2.79-5.56-5.03 2.52 1 4.63 2.38 6.15 4.3 -1.22-4.99-4.92-7.24-10.33-7.63C572.72 204.99 575.74 208.1 580.87 208.17zM659.43 351.41c2.54-5.05 6.65-9.15 11.87-12.56 -2.41 5.76-5.71 10.53-10.21 13.95 11.55-2.55 16.95-10.97 18.11-23.42C667.16 332.77 659.85 339.59 659.43 351.41zM656.27 329.58c1.95-5.17 5.54-9.58 10.28-13.43 -1.76 5.85-4.48 10.83-8.53 14.6 10.98-3.65 15.38-12.39 15.25-24.63C661.9 310.64 655.48 318.03 656.27 329.58zM650.82 308.16c1.38-5.24 4.43-9.9 8.66-14.14 -1.12 5.88-3.27 11.02-6.83 15.11 10.33-4.67 13.73-13.64 12.36-25.55C654.38 289.13 648.88 296.99 650.82 308.16zM644.46 290.35c0.87-5.11 3.37-9.79 7.03-14.18 -0.57 5.69-2.18 10.75-5.21 14.94 9.43-5.32 11.9-14.13 9.59-25.35C646.24 271.96 641.67 279.89 644.46 290.35zM660.08 396.7c11.83-0.11 18.84-7.23 22.55-19.17 -12.48 0.83-21.03 6-23.89 17.49 3.53-4.42 8.39-7.59 14.21-9.85C669.4 390.3 665.2 394.29 660.08 396.7zM660.22 373.23c3.05-4.76 7.56-8.41 13.11-11.26 -3 5.48-6.77 9.89-11.61 12.81 11.75-1.34 17.99-9.15 20.44-21.41C669.84 355.48 661.87 361.52 660.22 373.23zM620.63 230.91c0.71 4.68 0.47 9.07-1.11 13.06 6.48-6.21 6.65-13.79 2.49-22.31 -6.46 6.95-8.5 14.25-4.1 22.08C617.55 239.46 618.59 235.18 620.63 230.91zM636.76 273.66c0.42-5.16 2.5-10.04 5.77-14.73 -0.07 5.71-1.23 10.89-3.89 15.33 8.93-6.12 10.62-15.11 7.34-26.08C636.93 255.19 633.07 263.48 636.76 273.66zM597.38 209.01c1.15 3.69 1.5 7.25 0.72 10.66 4.44-5.8 3.65-11.92-0.76-18.26 -4.34 6.39-5.07 12.52-0.57 18.27C595.96 216.28 596.27 212.7 597.38 209.01zM586.87 203.09c0.98 2.54 1.39 5.05 0.99 7.49 2.88-4.3 2.04-8.59-1.36-12.87 -2.77 4.71-3.02 9.07 0.42 12.93C586.19 208.28 586.25 205.74 586.87 203.09zM609.17 219.26c0.97 4.2 1.06 8.19-0.09 11.92 5.43-6.09 5.05-12.97 0.68-20.4 -5.36 6.75-6.7 13.51-2.16 20.3C606.98 227.23 607.62 223.28 609.17 219.26zM631.69 244.04c0.37 5.17-0.27 9.95-2.34 14.17 7.6-6.23 8.44-14.49 4.63-24.15 -7.65 7.03-10.5 14.83-6.37 23.75C627.59 253.11 629.09 248.53 631.69 244.04zM639.12 280.59c-12.93-27.32-31.8-51.87-55.66-71.63 -0.68-0.57-1.05-0.17-1.08-0.13 -0.02 0.03-0.31 0.45 0.35 1 23.73 19.66 42.5 44.07 55.37 71.26 38.01 80.32 20.2 176.43-44.44 238.43 -13.54 12.99-28.85 24.13-45.51 33.09 -0.66 0.4-2.23 1.3-1.66 2.35 0.51 0.95 2.06-0.08 2.89-0.43 16.78-9.04 32.21-20.28 45.86-33.37C660.48 458.55 677.44 361.56 639.12 280.59z" fill="#000" stroke="none" stroke-width="0"></path></g></g></g></svg>